HIERARCHY
ROOT Hips
{
  OFFSET 42.2699 100.178 9.02729
  CHANNELS 6 Xposition Yposition Zposition Zrotation Xrotation Yrotation
  JOINT spine
  {
    OFFSET 0 8.81705 0.507024
    CHANNELS 3 Zrotation Xrotation Yrotation
    JOINT spine1
    {
      OFFSET 0 10.7766 0
      CHANNELS 3 Zrotation Xrotation Yrotation
      JOINT spine2
      {
        OFFSET 0 10.3259 0
        CHANNELS 3 Zrotation Xrotation Yrotation
        JOINT Neck
        {
          OFFSET 0 26.511 1.26395
          CHANNELS 3 Zrotation Xrotation Yrotation
          JOINT Head
          {
            OFFSET 0 8.00966 0
            CHANNELS 3 Zrotation Xrotation Yrotation
            End Site
            {
              OFFSET 0 19.3879 -6.39386
            }
          }
        }
        JOINT RightShoulder
        {
          OFFSET -4.34795 11.1512 -0.605422
          CHANNELS 3 Zrotation Xrotation Yrotation
          JOINT RightArm
          {
            OFFSET 0 14.6258 0
            CHANNELS 3 Zrotation Xrotation Yrotation
            JOINT RightArmRoll
            {
              OFFSET 0 7.3834 0
              CHANNELS 3 Zrotation Xrotation Yrotation
              JOINT RightForeArm
              {
                OFFSET 0 21.5052 0
                CHANNELS 3 Zrotation Xrotation Yrotation
                JOINT RightForeArmRoll
                {
                  OFFSET 0 8.28532 0
                  CHANNELS 3 Zrotation Xrotation Yrotation
                  JOINT RightHand
                  {
                    OFFSET 0 16.6268 0
                    CHANNELS 3 Zrotation Xrotation Yrotation
                    End Site
                    {
                      OFFSET 0 0 0
                    }
                  }
                }
              }
            }
          }
        }
        JOINT LeftShoulder
        {
          OFFSET 4.34795 11.1512 -0.605422
          CHANNELS 3 Zrotation Xrotation Yrotation
          JOINT LeftArm
          {
            OFFSET 0 14.6258 0
            CHANNELS 3 Zrotation Xrotation Yrotation
            JOINT LeftArmRoll
            {
              OFFSET 0 7.3834 0
              CHANNELS 3 Zrotation Xrotation Yrotation
              JOINT LeftForeArm
              {
                OFFSET 0 21.5052 0
                CHANNELS 3 Zrotation Xrotation Yrotation
                JOINT LeftForeArmRoll
                {
                  OFFSET 0 8.28532 0
                  CHANNELS 3 Zrotation Xrotation Yrotation
                  JOINT LeftHand
                  {
                    OFFSET 0 16.6268 0
                    CHANNELS 3 Zrotation Xrotation Yrotation
                    End Site
                    {
                      OFFSET 0 0 0
                    }
                  }
                }
              }
            }
          }
        }
      }
    }
  }
  JOINT RightUpLeg
  {
    OFFSET -7.8151 -1.43309 -1.20217
    CHANNELS 3 Zrotation Xrotation Yrotation
    JOINT RightUpLegRoll
    {
      OFFSET 0 19.4959 0
      CHANNELS 3 Zrotation Xrotation Yrotation
      JOINT RightLeg
      {
        OFFSET 0 -24.1427 0
        CHANNELS 3 Zrotation Xrotation Yrotation
        JOINT RightLegRoll
        {
          OFFSET 0 24.2217 0
          CHANNELS 3 Zrotation Xrotation Yrotation
          JOINT RightFoot
          {
            OFFSET 0 20.1605 0
            CHANNELS 3 Zrotation Xrotation Yrotation
            JOINT RightToeBase
            {
              OFFSET 0 16.8532 0
              CHANNELS 3 Zrotation Xrotation Yrotation
              End Site
              {
                OFFSET 0.00714343 8.16187 -0.940781
              }
            }
          }
        }
      }
    }
  }
  JOINT LeftUpLeg
  {
    OFFSET 7.8151 -1.43309 -1.20217
    CHANNELS 3 Zrotation Xrotation Yrotation
    JOINT LeftUpLegRoll
    {
      OFFSET 0 19.496 0
      CHANNELS 3 Zrotation Xrotation Yrotation
      JOINT LeftLeg
      {
        OFFSET 0 24.1426 0
        CHANNELS 3 Zrotation Xrotation Yrotation
        JOINT LeftLegRoll
        {
          OFFSET 0 24.4456 0
          CHANNELS 3 Zrotation Xrotation Yrotation
          JOINT LeftFoot
          {
            OFFSET 0 19.9366 0
            CHANNELS 3 Zrotation Xrotation Yrotation
            JOINT LeftToeBase
            {
              OFFSET 0 16.8532 0
              CHANNELS 3 Zrotation Xrotation Yrotation
              End Site
              {
                OFFSET -0.0320138 8.16187 -0.94078
              }
            }
          }
        }
      }
    }
  }
}
MOTION
Frames: 10
Frame Time: 0.00208333
48.5482 99.7876 7.1227 2.51483 0.073813 61.782 -0.643511 -2.60269 0.972283 -1.24968 -1.21346 1.99019 -1.27358 0.430972 2.01114 -32.646 2.1739 4.60824 20.3117 1.90037 1.5871 26.8997 4.25185 9.41149 169.258 76.6326 -49.0946 7.27134e-006 -4.19097e-005 -1.39397e-006 -1.61979 30.7823 -0.859194 -1.81961e-005 1.11243e-005 -3.00825 8.02954 -4.95091 0.697432 -72.1705 -15.5002 8.89591 -93.9896 16.4728 -10.6657 3.07419e-006 1.0844e-006 -2.89034e-006 -11.0963 9.23692 1.51513 1.6507e-005 -6.69959e-006 3 -8.02953 -4.9509 -0.697294 176.907 -6.47399 1.05227 180 7.01511e-015 178.778 179.417 15.4388 179.559 1.60011e-006 -1.86848e-007 0.711335 -28.454 76.0625 30.1326 8.23887 29.0942 -1.36529 -179.566 10.5831 3.29218 4.54188e-006 -4.6773e-006 -1.11397 -3.4764 -15.9496 -0.0443767 7.80079e-007 -1.62304e-006 -0.337349 22.7226 72.0591 -23.6896 -8.13649 25.2327 3.48773 
48.5737 99.7867 7.12232 2.50168 0.0801224 61.8227 -0.64424 -2.59824 0.969198 -1.25123 -1.20453 1.98478 -1.27508 0.439901 2.00575 -32.8306 2.08651 4.58693 20.4839 1.91964 1.57521 26.8477 4.36433 9.54549 168.888 76.3262 -48.5904 7.27134e-006 -4.19097e-005 -1.39397e-006 -1.56532 30.6257 -0.880391 -1.81961e-005 1.11243e-005 -3.00825 8.02954 -4.95091 0.697432 -72.2509 -15.5232 8.90247 -93.9316 16.4916 -10.6821 3.07419e-006 1.0844e-006 -2.89034e-006 -11.0998 9.24413 1.51628 1.6507e-005 -6.69959e-006 3 -8.02953 -4.9509 -0.697294 176.92 -6.46798 1.04719 180 7.01511e-015 178.778 179.417 15.4429 179.558 1.60011e-006 -1.86848e-007 0.711225 -28.4489 76.0608 30.1281 8.24046 29.1242 -1.37764 -179.559 10.621 3.28207 4.54188e-006 -4.6773e-006 -1.1137 -3.48548 -15.9803 -0.0463543 7.80079e-007 -1.62304e-006 -0.337095 22.7309 72.0616 -23.6934 -8.13649 25.2327 3.48773 
48.5762 99.776 7.12408 2.48842 0.0862475 61.8619 -0.644786 -2.59377 0.966074 -1.25241 -1.19559 1.9793 -1.27621 0.448845 2.00029 -33.0152 1.99994 4.56636 20.6544 1.93788 1.56401 26.7997 4.47859 9.6802 168.529 76.0191 -48.0911 7.27134e-006 -4.19097e-005 -1.39397e-006 -1.51296 30.4758 -0.900048 -1.81961e-005 1.11243e-005 -3.00825 8.02954 -4.95091 0.697432 -72.331 -15.5463 8.90899 -93.8743 16.509 -10.6991 3.07419e-006 1.0844e-006 -2.89034e-006 -11.1029 9.25078 1.51735 1.6507e-005 -6.69959e-006 3 -8.02953 -4.9509 -0.697294 176.932 -6.46165 1.04206 180 7.01511e-015 178.778 179.416 15.4477 179.557 1.60011e-006 -1.86848e-007 0.711151 -28.4452 76.0597 30.1251 8.24203 29.1535 -1.38984 -179.552 10.6592 3.27163 4.54188e-006 -4.6773e-006 -1.11344 -3.49478 -16.0122 -0.0483845 7.80079e-007 -1.62304e-006 -0.336854 22.7396 72.0644 -23.6976 -8.13649 25.2327 3.48773 
48.5703 99.7654 7.12761 2.47504 0.0921897 61.8997 -0.645198 -2.58931 0.962983 -1.25333 -1.18664 1.97389 -1.27707 0.457793 1.99489 -33.1984 1.9141 4.54633 20.8223 1.95529 1.55341 26.7571 4.5938 9.81437 168.182 75.7121 -47.5999 7.27134e-006 -4.19097e-005 -1.39397e-006 -1.46199 30.3305 -0.918579 -1.81961e-005 1.11243e-005 -3.00825 8.02954 -4.95091 0.697432 -72.4099 -15.5692 8.9155 -93.8185 16.5248 -10.7166 3.07419e-006 1.0844e-006 -2.89034e-006 -11.1055 9.25671 1.51832 1.6507e-005 -6.69959e-006 3 -8.02953 -4.9509 -0.697294 176.945 -6.455 1.03682 180 7.01511e-015 178.778 179.416 15.4529 179.556 1.60011e-006 -1.86848e-007 0.71112 -28.4429 76.0592 30.1234 8.24357 29.1821 -1.40185 -179.544 10.6975 3.26092 4.54188e-006 -4.6773e-006 -1.1132 -3.50422 -16.0447 -0.0504463 7.80079e-007 -1.62304e-006 -0.336623 22.7486 72.0675 -23.7021 -8.13649 25.2327 3.48773 
48.5864 99.7711 7.12134 2.46151 0.0979501 61.9361 -0.645525 -2.58485 0.959996 -1.25408 -1.1777 1.96868 -1.27777 0.466735 1.98969 -33.3789 1.82894 4.52663 20.9865 1.97204 1.54332 26.721 4.70911 9.94669 167.847 75.4056 -47.1194 7.27134e-006 -4.19097e-005 -1.39397e-006 -1.41174 30.1878 -0.93639 -1.81961e-005 1.11243e-005 -3.00825 8.02954 -4.95091 0.697432 -72.487 -15.5918 8.92198 -93.7647 16.5392 -10.7344 3.07419e-006 1.0844e-006 -2.89034e-006 -11.1073 9.26174 1.51917 1.6507e-005 -6.69959e-006 3 -8.02953 -4.9509 -0.697294 176.957 -6.44802 1.0314 180 7.01511e-015 178.778 179.416 15.4586 179.555 1.60011e-006 -1.86848e-007 0.711135 -28.4419 76.0594 30.1231 8.24508 29.2099 -1.4136 -179.536 10.7354 3.25 4.54188e-006 -4.6773e-006 -1.11296 -3.51371 -16.0775 -0.0525188 7.80079e-007 -1.62304e-006 -0.336402 22.758 72.0707 -23.7068 -8.13649 25.2327 3.48773 
48.618 99.7692 7.13192 2.44779 0.10353 61.9713 -0.645817 -2.5804 0.957186 -1.25476 -1.16878 1.96379 -1.2784 0.475661 1.98481 -33.5555 1.74437 4.50707 21.1459 1.98831 1.53364 26.6925 4.8237 10.0759 167.525 75.1003 -46.6521 7.27134e-006 -4.19097e-005 -1.39397e-006 -1.36152 30.0455 -0.953886 -1.81961e-005 1.11243e-005 -3.00825 8.02954 -4.95091 0.697432 -72.5614 -15.6142 8.92846 -93.7138 16.5522 -10.7524 3.07419e-006 1.0844e-006 -2.89034e-006 -11.1084 9.26568 1.51988 1.6507e-005 -6.69959e-006 3 -8.02953 -4.9509 -0.697294 176.97 -6.44072 1.02573 180 7.01511e-015 178.777 179.416 15.4646 179.554 1.60011e-006 -1.86848e-007 0.711201 -28.4421 76.0602 30.1242 8.24656 29.2367 -1.42505 -179.527 10.7727 3.23895 4.54188e-006 -4.6773e-006 -1.11272 -3.52317 -16.1101 -0.0545809 7.80079e-007 -1.62304e-006 -0.336189 22.7675 72.0741 -23.7118 -8.13649 25.2327 3.48773 
48.6158 99.7682 7.15076 2.43388 0.10893 62.0051 -0.646124 -2.57596 0.954624 -1.25547 -1.15988 1.95936 -1.27907 0.484559 1.9804 -33.7266 1.66034 4.48745 21.2996 2.00429 1.52427 26.6729 4.93672 10.2007 167.214 74.7968 -46.2003 7.27134e-006 -4.19097e-005 -1.39397e-006 -1.31065 29.9017 -0.971467 -1.81961e-005 1.11243e-005 -3.00825 8.02954 -4.95091 0.697432 -72.6324 -15.6361 8.93493 -93.6665 16.5639 -10.7704 3.07419e-006 1.0844e-006 -2.89034e-006 -11.1085 9.26838 1.52043 1.6507e-005 -6.69959e-006 3 -8.02953 -4.9509 -0.697294 176.983 -6.43308 1.01974 180 7.01511e-015 178.777 179.417 15.4711 179.553 1.60011e-006 -1.86848e-007 0.711325 -28.4437 76.0615 30.1265 8.24801 29.2626 -1.43614 -179.519 10.809 3.22784 4.54188e-006 -4.6773e-006 -1.11249 -3.53251 -16.142 -0.0566117 7.80079e-007 -1.62304e-006 -0.335985 22.7771 72.0778 -23.7171 -8.13649 25.2327 3.48773 
48.6053 99.7652 7.13893 2.41973 0.114152 62.0377 -0.646494 -2.57153 0.952383 -1.25632 -1.15102 1.95553 -1.27988 0.49342 1.97658 -33.8911 1.57677 4.46758 21.4465 2.02015 1.51512 26.6635 5.04735 10.3198 166.916 74.4958 -45.7658 7.27134e-006 -4.19097e-005 -1.39397e-006 -1.25846 29.7541 -0.98953 -1.81961e-005 1.11243e-005 -3.00825 8.02954 -4.95091 0.697432 -72.6991 -15.6577 8.9414 -93.6234 16.5742 -10.7883 3.07419e-006 1.0844e-006 -2.89034e-006 -11.1075 9.26965 1.52081 1.6507e-005 -6.69959e-006 3 -8.02953 -4.9509 -0.697294 176.997 -6.42511 1.01336 180 7.01511e-015 178.777 179.418 15.4778 179.553 1.60011e-006 -1.86848e-007 0.71151 -28.4464 76.0635 30.13 8.24941 29.2875 -1.44684 -179.51 10.8439 3.21672 4.54188e-006 -4.6773e-006 -1.11226 -3.54165 -16.1729 -0.05859 7.80079e-007 -1.62304e-006 -0.335786 22.7868 72.0815 -23.7224 -8.13649 25.2327 3.48773 
48.6168 99.7502 7.14816 2.40533 0.119196 62.0692 -0.646978 -2.56713 0.950534 -1.25739 -1.14221 1.95241 -1.28092 0.502233 1.97348 -34.0476 1.49359 4.44726 21.5855 2.03608 1.50609 26.6654 5.15478 10.432 166.629 74.198 -45.3504 7.27134e-006 -4.19097e-005 -1.39397e-006 -1.20429 29.6008 -1.00847 -1.81961e-005 1.11243e-005 -3.00825 8.02954 -4.95091 0.697432 -72.7609 -15.6786 8.94787 -93.5852 16.5832 -10.8059 3.07419e-006 1.0844e-006 -2.89034e-006 -11.1054 9.26932 1.52098 1.6507e-005 -6.69959e-006 3 -8.02953 -4.9509 -0.697294 177.01 -6.41681 1.00652 180 7.01511e-015 178.777 179.419 15.4848 179.552 1.60011e-006 -1.86848e-007 0.711762 -28.4504 76.066 30.1348 8.25076 29.3112 -1.45707 -179.501 10.8771 3.20568 4.54188e-006 -4.6773e-006 -1.11203 -3.5505 -16.2022 -0.0604948 7.80079e-007 -1.62304e-006 -0.335594 22.7964 72.0854 -23.728 -8.13649 25.2327 3.48773 
48.6179 99.7664 7.15383 2.39066 0.124063 62.0995 -0.647624 -2.56275 0.94915 -1.25878 -1.13345 1.95015 -1.2823 0.510988 1.97125 -34.1948 1.41073 4.42629 21.7156 2.05226 1.49708 26.68 5.25817 10.5359 166.353 73.904 -44.9556 7.27134e-006 -4.19097e-005 -1.39397e-006 -1.1475 29.4397 -1.02867 -1.81961e-005 1.11243e-005 -3.00825 8.02954 -4.95091 0.697432 -72.817 -15.699 8.95436 -93.5526 16.591 -10.823 3.07419e-006 1.0844e-006 -2.89034e-006 -11.1019 9.26721 1.52092 1.6507e-005 -6.69959e-006 3 -8.02953 -4.9509 -0.697294 177.024 -6.40817 0.99914 180 7.01511e-015 178.777 179.422 15.492 179.551 1.60011e-006 -1.86848e-007 0.712085 -28.4556 76.0691 30.1407 8.25207 29.3337 -1.4668 -179.492 10.9082 3.19477 4.54188e-006 -4.6773e-006 -1.11179 -3.55897 -16.2295 -0.062305 7.80079e-007 -1.62304e-006 -0.335405 22.8059 72.0895 -23.7337 -8.13649 25.2327 3.48773 
